<svg aria-hidden="true" style="position: absolute; width: 0; height: 0; overflow: hidden;" version="1.1" xmlns="http://www.w3.org/2000/svg" xmlns:xlink="http://www.w3.org/1999/xlink">
<defs>
<symbol id="icon-twitter" viewBox="0 0 32 32">
<path d="M32 5.733c-1.197 0.533-2.4 0.933-3.733 1.069 1.333-0.803 2.4-2.136 2.931-3.605-1.333 0.803-2.667 1.333-4.129 1.605-1.335-1.333-3.068-2.136-4.935-2.136-3.605 0.005-6.527 2.926-6.533 6.53v0.001c0 0.537 0 1.068 0.136 1.469-5.469-0.267-10.267-2.803-13.469-6.803-0.667 0.939-0.933 2.136-0.933 3.333 0 2.272 1.197 4.272 2.933 5.469-1.069-0.136-2.131-0.4-2.933-0.803v0.136c0 3.197 2.267 5.864 5.197 6.4-0.531 0.131-1.061 0.267-1.728 0.267-0.401 0-0.803 0-1.204-0.136 0.803 2.667 3.204 4.537 6.136 4.537-2.267 1.733-5.068 2.796-8.136 2.796-0.531 0-1.067 0-1.599-0.129 2.933 1.864 6.4 2.932 10 2.932 12.136 0 18.667-10 18.667-18.667v-0.803c1.333-0.932 2.4-2.129 3.333-3.463z"></path>
</symbol>
<symbol id="icon-modal-close" viewBox="0 0 32 32">
<path d="M31.439 3.166l-3.166-3.166-12.554 12.552-12.552-12.552-3.166 3.166 12.552 12.552-12.552 12.554 3.166 3.166 12.552-12.554 12.554 12.554 3.166-3.166-12.554-12.554 12.554-12.552z"></path>
</symbol>
<symbol id="icon-check" viewBox="0 0 34 32">
<path fill="#fff" style="fill: var(--color1, #fff); stroke: var(--color1, #fff)" stroke="#fff" stroke-linejoin="miter" stroke-linecap="butt" stroke-miterlimit="4" stroke-width="0.4267" d="M8.442 16.538l-0.147-0.141-0.147 0.139-2.057 1.95 0.162 0.156 7.605 7.253 0.147-0.141 16.171-15.426-0.162-0.154-2.029-1.935-0.147 0.141-13.98 13.325-5.417-5.167z"></path>
</symbol>
<symbol id="icon-copy" viewBox="0 0 32 32">
<path d="M29.722 19.92c0 1.082-0.877 1.962-1.962 1.962h-15.68c-1.082 0-1.962-0.877-1.962-1.962v-15.68c0-1.082 0.877-1.962 1.962-1.962h15.68c1.082 0 1.962 0.877 1.962 1.962v15.68zM27.76 0.32h-15.68c-2.166 0-3.92 1.754-3.92 3.92v15.68c0 2.166 1.754 3.92 3.92 3.92h15.68c2.166 0 3.92-1.754 3.92-3.92v-15.68c0-2.166-1.754-3.92-3.92-3.92zM21.882 27.76c0 1.082-0.877 1.962-1.962 1.962h-15.68c-1.082 0-1.962-0.877-1.962-1.962v-15.68c0-1.082 0.877-1.962 1.962-1.962h1.962v-1.958h-1.962c-2.166 0-3.92 1.754-3.92 3.92v15.68c0 2.166 1.754 3.92 3.92 3.92h15.68c2.166 0 3.92-1.754 3.92-3.92v-1.962h-1.962v1.962h0.003z"></path>
</symbol>
<symbol id="icon-logout" viewBox="0 0 32 32">
<path d="M15.2 3.862c-0.428 0.087-0.765 0.272-1.088 0.598-0.25 0.253-0.395 0.482-0.498 0.79-0.090 0.27-0.115 0.465-0.115 0.893v0.383h5.888c4.235 0 5.922 0.008 6.018 0.027 0.418 0.088 0.753 0.425 0.843 0.843 0.040 0.19 0.040 17.020 0 17.21-0.090 0.418-0.427 0.755-0.843 0.843-0.095 0.020-1.782 0.027-6.017 0.027h-5.887v0.38c0 0.43 0.025 0.625 0.115 0.895 0.102 0.305 0.248 0.535 0.498 0.79 0.332 0.335 0.695 0.527 1.148 0.608 0.102 0.020 2.017 0.027 5.983 0.027 6.422 0 5.988 0.010 6.407-0.152 0.267-0.102 0.48-0.25 0.725-0.497 0.315-0.317 0.503-0.688 0.573-1.125 0.038-0.227 0.038-20.573 0-20.8-0.137-0.87-0.823-1.572-1.692-1.74-0.265-0.050-11.803-0.047-12.055 0.002z"></path>
<path d="M14.563 9.615c-0.11 0.035-0.195 0.107-0.723 0.63-0.665 0.662-0.715 0.73-0.715 0.992 0 0.092 0.020 0.19 0.047 0.252 0.033 0.070 0.51 0.568 1.615 1.675l1.57 1.572-12.87 0.025-0.103 0.055c-0.14 0.075-0.297 0.258-0.333 0.387-0.022 0.078-0.027 0.357-0.022 0.958 0.007 0.82 0.010 0.852 0.063 0.953 0.063 0.12 0.208 0.253 0.323 0.3 0.070 0.030 1.115 0.035 6.51 0.035 3.533 0 6.425 0.008 6.425 0.017s-0.703 0.723-1.563 1.582c-1.195 1.198-1.572 1.59-1.61 1.675-0.068 0.15-0.068 0.375 0 0.525 0.072 0.16 1.135 1.227 1.308 1.313 0.16 0.080 0.393 0.085 0.547 0.012 0.078-0.038 0.908-0.852 3.045-2.992 2.9-2.905 2.94-2.948 3.020-3.128 0.075-0.165 0.082-0.2 0.075-0.375-0.012-0.242-0.087-0.402-0.308-0.658-0.087-0.102-1.407-1.43-2.93-2.953-1.957-1.953-2.805-2.78-2.883-2.82-0.143-0.072-0.332-0.085-0.49-0.035z"></path>
</symbol>
</defs>
</svg>
