<svg aria-hidden="true" style="position:absolute;width:0;height:0" xmlns="http://www.w3.org/2000/svg" overflow="hidden"><defs><symbol id="icon-twitter" viewBox="0 0 32 32"><path d="M32 5.733c-1.197.533-2.4.933-3.733 1.069 1.333-.803 2.4-2.136 2.931-3.605-1.333.803-2.667 1.333-4.129 1.605-1.335-1.333-3.068-2.136-4.935-2.136a6.542 6.542 0 00-6.533 6.53v.001c0 .537 0 1.068.136 1.469-5.469-.267-10.267-2.803-13.469-6.803-.667.939-.933 2.136-.933 3.333 0 2.272 1.197 4.272 2.933 5.469-1.069-.136-2.131-.4-2.933-.803v.136c0 3.197 2.267 5.864 5.197 6.4-.531.131-1.061.267-1.728.267-.401 0-.803 0-1.204-.136.803 2.667 3.204 4.537 6.136 4.537-2.267 1.733-5.068 2.796-8.136 2.796-.531 0-1.067 0-1.599-.129 2.933 1.864 6.4 2.932 10 2.932 12.136 0 18.667-10 18.667-18.667v-.803c1.333-.932 2.4-2.129 3.333-3.463z"/></symbol></defs></svg>