<svg aria-hidden="true" style="position:absolute;width:0;height:0" xmlns="http://www.w3.org/2000/svg" overflow="hidden"><defs><symbol id="icon-twitter" viewBox="0 0 32 32"><path d="M32 5.733c-1.197.533-2.4.933-3.733 1.069 1.333-.803 2.4-2.136 2.931-3.605-1.333.803-2.667 1.333-4.129 1.605-1.335-1.333-3.068-2.136-4.935-2.136a6.542 6.542 0 00-6.533 6.53v.001c0 .537 0 1.068.136 1.469-5.469-.267-10.267-2.803-13.469-6.803-.667.939-.933 2.136-.933 3.333 0 2.272 1.197 4.272 2.933 5.469-1.069-.136-2.131-.4-2.933-.803v.136c0 3.197 2.267 5.864 5.197 6.4-.531.131-1.061.267-1.728.267-.401 0-.803 0-1.204-.136.803 2.667 3.204 4.537 6.136 4.537-2.267 1.733-5.068 2.796-8.136 2.796-.531 0-1.067 0-1.599-.129 2.933 1.864 6.4 2.932 10 2.932 12.136 0 18.667-10 18.667-18.667v-.803c1.333-.932 2.4-2.129 3.333-3.463z"/></symbol><symbol id="icon-menu-close" viewBox="0 0 32 32"><path d="M31.439 3.166L28.273 0 15.719 12.552 3.167 0 .001 3.166l12.552 12.552L.001 28.272l3.166 3.166 12.552-12.554 12.554 12.554 3.166-3.166-12.554-12.554L31.439 3.166z"/></symbol><symbol id="icon-check" viewBox="0 0 34 32"><path fill="var(--color1, #fff)" stroke="var(--color1, #fff)" stroke-width=".427" d="M8.442 16.538l-.147-.141-.147.139-2.057 1.95.162.156 7.605 7.253.147-.141 16.171-15.426-.162-.154-2.029-1.935-.147.141-13.98 13.325-5.417-5.167z"/></symbol><symbol id="icon-logout" viewBox="0 0 32 32"><path d="M15.2 3.862a2.024 2.024 0 00-1.088.598 1.92 1.92 0 00-.498.79c-.09.27-.115.465-.115.893v.383h5.888c4.235 0 5.922.008 6.018.027.418.088.753.425.843.843.04.19.04 17.02 0 17.21-.09.418-.427.755-.843.843-.095.02-1.782.027-6.017.027h-5.887v.38c0 .43.025.625.115.895.102.305.248.535.498.79.332.335.695.527 1.148.608.102.02 2.017.027 5.983.027 6.422 0 5.988.01 6.407-.152.267-.102.48-.25.725-.497.315-.317.503-.688.573-1.125.038-.227.038-20.573 0-20.8a2.126 2.126 0 00-1.692-1.74c-.265-.05-11.803-.047-12.055.002z"/><path d="M14.563 9.615c-.11.035-.195.107-.723.63-.665.662-.715.73-.715.992 0 .092.02.19.047.252.033.07.51.568 1.615 1.675l1.57 1.572-12.87.025-.103.055c-.14.075-.297.258-.333.387-.022.078-.027.357-.022.958.007.82.01.852.063.953.063.12.208.253.323.3.07.03 1.115.035 6.51.035 3.533 0 6.425.008 6.425.017s-.703.723-1.563 1.582c-1.195 1.198-1.572 1.59-1.61 1.675a.701.701 0 000 .525c.072.16 1.135 1.227 1.308 1.313.16.08.393.085.547.012.078-.038.908-.852 3.045-2.992 2.9-2.905 2.94-2.948 3.02-3.128.075-.165.082-.2.075-.375-.012-.242-.087-.402-.308-.658-.087-.102-1.407-1.43-2.93-2.953-1.957-1.953-2.805-2.78-2.883-2.82a.678.678 0 00-.49-.035z"/></symbol></defs></svg>